# xmcd
#
# Track frame offsets: 
#        150
#        14410
#        29547
#        43799
#        68070
#        92828
#        109317
#        141748
#        160899
#        188414
#        210069
#        235387
#        259447
#        279440
#        302755
#        321416
#
# Disc length: 4535 seconds
#
# Revision: 0
# Processed by: cddbd v1.5.2PL0 Copyright (c) Steve Scherf et al.
# Submitted via: ExactAudioCopyFreeDBPlugin 1.0
#
DISCID=ea11b510
DTITLE=群星 - 试机08号
DYEAR=2009
DGENRE=Acid
TTITLE0=施特劳斯圆舞曲
TTITLE1=孤独的牧羊人
TTITLE2=你怎么说
TTITLE3=星
TTITLE4=睡美人小夜曲
TTITLE5=深情相拥
TTITLE6=喜多郎之古事记
TTITLE7=昨夜星辰
TTITLE8=千古绝声之行云流水
TTITLE9=水中花
TTITLE10=十面埋伏
TTITLE11=盛夏的果实
TTITLE12=为了谁
TTITLE13=月满西楼
TTITLE14=木村好夫之海峡
TTITLE15=边疆的泉水清又纯
EXTD=
EXTT0=
EXTT1=
EXTT2=
EXTT3=
EXTT4=
EXTT5=
EXTT6=
EXTT7=
EXTT8=
EXTT9=
EXTT10=
EXTT11=
EXTT12=
EXTT13=
EXTT14=
EXTT15=
PLAYORDER=
